<svg width="49" height="48" viewBox="0 0 49 48" fill="none" xmlns="http://www.w3.org/2000/svg">
<g id="Group">
<path id="Vector" d="M0.465658 16.6616C0.465658 16.6616 -0.726681 15.8117 0.704534 14.681L4.04267 11.7388C4.04267 11.7388 4.99614 10.7495 6.00676 11.6114L36.7973 34.5873V45.6034C36.7973 45.6034 36.783 47.3353 34.531 47.1442L0.463616 16.6597L0.465658 16.6616Z" fill="white"/>
<path id="Vector_2" d="M8.40369 23.7622L0.46566 30.8727C0.46566 30.8727 -0.35101 31.4699 0.46566 32.5389L4.15088 35.8433C4.15088 35.8433 5.02676 36.769 6.31914 35.7139L14.7329 29.4275L8.40369 23.7622Z" fill="white"/>
<path id="Vector_3" d="M22.3361 23.82L36.8932 12.8676L36.7973 1.90914C36.7973 1.90914 36.1746 -0.483597 34.1023 0.762537L14.7329 18.1348L22.3361 23.82Z" fill="white"/>
<path id="Vector_4" d="M34.529 47.1581C35.3742 48.0101 36.3991 47.7314 36.3991 47.7314L47.7427 42.2233C49.1943 41.2479 48.9902 40.0376 48.9902 40.0376V7.14247C48.9902 5.69728 47.4895 5.19763 47.4895 5.19763L37.6568 0.525623C35.509 -0.782221 34.1023 0.762508 34.1023 0.762508C34.1023 0.762508 35.9112 -0.521448 36.7973 1.90911V45.4044C36.7973 45.703 36.7319 45.9956 36.6033 46.2603C36.344 46.7759 35.7826 47.2556 34.4351 47.0566L34.529 47.1581Z" fill="white"/>
</g>
</svg>
