<svg width="50" height="54" viewBox="0 0 50 54" fill="none" xmlns="http://www.w3.org/2000/svg">
<g id="Group">
<path id="Vector" d="M22.1809 1.66354C22.9645 1.22836 23.8461 1 24.7425 1C25.6388 1 26.5204 1.22836 27.304 1.66354L47.1289 12.6748C47.54 12.9033 47.8824 13.2376 48.1208 13.643C48.3592 14.0484 48.4849 14.5101 48.4849 14.9804V36.7048C48.4847 37.6456 48.2329 38.5693 47.7556 39.3801C47.2783 40.1909 46.5929 40.8593 45.7704 41.3161L27.304 51.5781C26.5204 52.0133 25.6388 52.2416 24.7425 52.2416C23.8461 52.2416 22.9645 52.0133 22.1809 51.5781L3.71455 41.3161C2.89242 40.8595 2.20726 40.1915 1.72999 39.3812C1.25272 38.5709 1.00069 37.6478 1 36.7074V14.9804C0.999981 14.5101 1.12568 14.0484 1.36409 13.643C1.6025 13.2376 1.94494 12.9033 2.35596 12.6748L22.1809 1.66354Z" stroke="white" stroke-width="2" stroke-linecap="round" stroke-linejoin="round"/>
<path id="Vector_2" d="M1 13.4292L24.7425 26.6195M24.7425 26.6195L48.4849 13.4292M24.7425 26.6195V53" stroke="white" stroke-width="2" stroke-linejoin="round"/>
<path id="Vector_3" d="M12.8712 20.0244L36.6137 6.83411" stroke="white" stroke-width="2" stroke-linecap="round" stroke-linejoin="round"/>
<path id="Vector_4" d="M8.91415 27.4847L16.8283 31.8956" stroke="white" stroke-width="2" stroke-linecap="round" stroke-linejoin="round"/>
</g>
</svg>
