<svg width="51" height="51" viewBox="0 0 51 51" fill="none" xmlns="http://www.w3.org/2000/svg">
<g id="react-fill" clip-path="url(#clip0_11_39)">
<g id="Group">
<g id="Clip path group">
<mask id="mask0_11_39" style="mask-type:luminance" maskUnits="userSpaceOnUse" x="0" y="0" width="51" height="51">
<g id="IconifyId-17e9079a9d3-956bb5-134">
<path id="Vector" d="M0 0H51V51H0V0Z" fill="white"/>
</g>
</mask>
<g mask="url(#mask0_11_39)">
<g id="Group_2">
<path id="Vector_2" d="M51 24.8391C51 21.4604 46.7691 18.258 40.2815 16.2732C41.7796 9.66237 41.1145 4.40087 38.182 2.71575C37.4714 2.31778 36.6672 2.11746 35.853 2.13562V4.45188C36.3311 4.45188 36.7158 4.5475 37.0388 4.72388C38.4519 5.53563 39.066 8.62113 38.5879 12.5928C38.4731 13.5703 38.2861 14.5987 38.0566 15.6485C35.8841 15.125 33.6791 14.7466 31.4564 14.5159C30.1322 12.689 28.6875 10.9525 27.132 9.31813C30.5214 6.16888 33.7025 4.44338 35.8658 4.44338V2.125C33.0055 2.125 29.2634 4.16287 25.4787 7.69675C21.6962 4.18625 17.952 2.1675 15.0939 2.1675V4.48375C17.2465 4.48375 20.4383 6.20075 23.8276 9.32875C22.372 10.8587 20.9164 12.5927 19.533 14.5159C17.3056 14.744 15.0967 15.126 12.9221 15.6591C12.682 14.62 12.5056 13.6128 12.3803 12.6459C11.8915 8.67213 12.495 5.58663 13.8996 4.76638C14.2099 4.57938 14.6158 4.49438 15.0939 4.49438V2.17812C14.2226 2.17812 13.43 2.36512 12.7458 2.75825C9.82388 4.44337 9.16938 9.69213 10.676 16.2839C4.20963 18.2814 0 21.471 0 24.8391C0 28.2179 4.23088 31.4202 10.7185 33.4029C9.22038 40.0159 9.8855 45.2774 12.818 46.9604C13.4938 47.3556 14.2842 47.5426 15.1555 47.5426C18.0157 47.5426 21.7579 45.5047 25.5425 41.9709C29.325 45.4835 33.0671 47.5001 35.9274 47.5001C36.7478 47.5175 37.5582 47.3165 38.2755 46.9179C41.1974 45.2349 41.8519 39.9861 40.3453 33.3944C46.7904 31.4096 51 28.2073 51 24.8391ZM37.4637 17.9052C37.06 19.2947 36.592 20.6647 36.0612 22.0107C35.1925 20.3209 34.2385 18.6761 33.2031 17.0829C34.68 17.3017 36.1038 17.5716 37.4659 17.9052H37.4637ZM32.7038 28.9765C31.8941 30.379 31.0611 31.7114 30.1984 32.9481C27.0794 33.223 23.9425 33.2266 20.8229 32.9588C19.0335 30.4028 17.4686 27.6968 16.1458 24.871C17.4666 22.0386 19.0248 19.3231 20.8037 16.7535C23.922 16.478 27.0582 16.4738 30.1771 16.7407C31.0399 17.9775 31.8835 19.2992 32.6931 20.6932C33.4836 22.0532 34.2019 23.4345 34.8564 24.8285C34.1946 26.2394 33.4765 27.6232 32.7038 28.9765ZM36.0612 27.625C36.6222 29.0169 37.1025 30.4109 37.4956 31.7624C36.1356 32.096 34.6991 32.3765 33.2138 32.5933C34.2449 30.9855 35.1952 29.3274 36.0612 27.625ZM25.5213 38.7175C24.5544 37.7187 23.5875 36.6074 22.6312 35.3897C23.5662 35.4322 24.5225 35.4641 25.4894 35.4641C26.4669 35.4641 27.4337 35.4429 28.3794 35.3897C27.4444 36.6074 26.4775 37.7187 25.5213 38.7175ZM17.7862 32.5933C16.3535 32.3856 14.931 32.1119 13.5235 31.773C13.9081 30.4321 14.3863 29.0488 14.926 27.6675C15.3531 28.4963 15.8015 29.3293 16.2902 30.1623C16.779 30.9931 17.2762 31.8049 17.7862 32.5933ZM25.4681 10.9607C26.435 11.9595 27.4019 13.0709 28.3581 14.2885C27.4231 14.246 26.4669 14.2141 25.5 14.2141C24.5225 14.2141 23.5556 14.2354 22.61 14.2885C23.545 13.0709 24.5119 11.9595 25.4681 10.9607ZM17.7756 17.085C16.7447 18.6892 15.7944 20.3438 14.9281 22.0426C14.3825 20.6879 13.9038 19.3071 13.4937 17.9052C14.8537 17.5822 16.2902 17.3017 17.7756 17.085ZM8.36825 30.0985C4.68775 28.5302 2.30775 26.4711 2.30775 24.8391C2.30775 23.2071 4.68775 21.1374 8.36825 19.5797C9.26075 19.1951 10.2383 18.8509 11.2476 18.53C11.8405 20.5658 12.6204 22.6865 13.5851 24.8604C12.6743 26.905 11.9039 29.0094 11.2795 31.1589C10.2923 30.8532 9.32075 30.4993 8.36825 30.0985ZM13.9613 44.9522C12.5481 44.1447 11.934 41.055 12.4121 37.0855C12.5269 36.108 12.7139 35.0774 12.9434 34.0276C14.9791 34.527 17.204 34.9116 19.5436 35.1624C20.8679 36.9892 22.3125 38.7256 23.868 40.3601C20.4786 43.5094 17.2975 45.2349 15.1343 45.2349C14.7261 45.2393 14.3232 45.143 13.9613 44.9544V44.9522ZM38.6197 37.0324C39.1085 41.004 38.505 44.0916 37.1004 44.9119C36.7901 45.0989 36.3842 45.1817 35.9061 45.1817C33.7535 45.1817 30.5617 43.4669 27.1724 40.3368C28.628 38.811 30.0836 37.0749 31.467 35.1517C33.6944 34.9236 35.9033 34.5416 38.0779 34.0085C38.318 35.0582 38.5029 36.0655 38.6197 37.0324ZM42.6211 30.0985C41.7286 30.4831 40.7511 30.8274 39.7417 31.1482C39.1063 28.9878 38.3254 26.8728 37.4042 24.8179C38.3605 22.6567 39.1276 20.5466 39.7099 18.5194C40.7405 18.8403 41.7159 19.1951 42.6318 19.5797C46.3123 21.148 48.6922 23.2071 48.6922 24.8391C48.6816 26.4711 46.3016 28.5409 42.6211 30.0985Z" fill="white"/>
<path id="Vector_3" d="M25.4894 29.5906C26.7496 29.5906 27.9581 29.09 28.8492 28.199C29.7403 27.3079 30.2409 26.0993 30.2409 24.8391C30.2409 23.579 29.7403 22.3704 28.8492 21.4793C27.9581 20.5882 26.7496 20.0876 25.4894 20.0876C24.2292 20.0876 23.0206 20.5882 22.1296 21.4793C21.2385 22.3704 20.7379 23.579 20.7379 24.8391C20.7379 26.0993 21.2385 27.3079 22.1296 28.199C23.0206 29.09 24.2292 29.5906 25.4894 29.5906Z" fill="white"/>
</g>
</g>
</g>
</g>
</g>
<defs>
<clipPath id="clip0_11_39">
<rect width="51" height="51" fill="white"/>
</clipPath>
</defs>
</svg>
