<svg width="35" height="35" viewBox="0 0 35 35" fill="none" xmlns="http://www.w3.org/2000/svg">
<g id="Group">
<path id="Vector" fill-rule="evenodd" clip-rule="evenodd" d="M4.30454e-07 2.9081C4.30454e-07 2.13682 0.306388 1.39714 0.851761 0.851765C1.39713 0.306391 2.13682 3.8769e-06 2.90809 3.8769e-06H31.8973C32.2795 -0.000620385 32.6581 0.0741506 33.0114 0.220036C33.3646 0.365921 33.6857 0.580056 33.9561 0.85018C34.2265 1.1203 34.441 1.44111 34.5873 1.79424C34.7335 2.14737 34.8087 2.52588 34.8085 2.9081V31.8973C34.8089 32.2796 34.734 32.6582 34.5879 33.0115C34.4419 33.3648 34.2276 33.6858 33.9573 33.9562C33.6871 34.2266 33.3662 34.4411 33.0129 34.5873C32.6597 34.7336 32.2811 34.8087 31.8988 34.8085H2.90809C2.52606 34.8085 2.14778 34.7332 1.79485 34.587C1.44192 34.4408 1.12126 34.2264 0.851202 33.9562C0.58114 33.686 0.366964 33.3652 0.220912 33.0122C0.0748593 32.6592 -0.00020742 32.2809 4.30454e-07 31.8988V2.9081ZM13.7778 13.2715H18.4912V15.6385C19.1716 14.2778 20.912 13.0532 23.5274 13.0532C28.5414 13.0532 29.7296 15.7635 29.7296 20.7364V29.948H24.6555V21.8692C24.6555 19.0371 23.9752 17.4391 22.2474 17.4391C19.8503 17.4391 18.8536 19.1621 18.8536 21.8692V29.948H13.7778V13.2715ZM5.07572 29.7312H10.1514V13.0532H5.07572V29.7312ZM10.8777 7.61358C10.8872 8.04816 10.8099 8.48029 10.6502 8.88458C10.4905 9.28888 10.2517 9.65721 9.94769 9.96795C9.64372 10.2787 9.28074 10.5256 8.88006 10.6941C8.47937 10.8627 8.04906 10.9495 7.61436 10.9495C7.17967 10.9495 6.74935 10.8627 6.34867 10.6941C5.94799 10.5256 5.58501 10.2787 5.28104 9.96795C4.97706 9.65721 4.73822 9.28888 4.57852 8.88458C4.41883 8.48029 4.3415 8.04816 4.35107 7.61358C4.36985 6.76054 4.72191 5.94877 5.33185 5.35211C5.94179 4.75545 6.76112 4.42135 7.61436 4.42135C8.46761 4.42135 9.28694 4.75545 9.89688 5.35211C10.5068 5.94877 10.8589 6.76054 10.8777 7.61358Z" fill="#00ADB5"/>
</g>
</svg>
