<svg width="54" height="30" viewBox="0 0 54 30" fill="none" xmlns="http://www.w3.org/2000/svg">
<g id="Group">
<path id="Vector" fill-rule="evenodd" clip-rule="evenodd" d="M54 5C54 6.32609 53.4311 7.59786 52.4184 8.53554C51.4057 9.47322 50.0322 10 48.6 10C47.1678 10 45.7943 9.47322 44.7816 8.53554C43.7689 7.59786 43.2 6.32609 43.2 5C43.2 3.67392 43.7689 2.40215 44.7816 1.46447C45.7943 0.526784 47.1678 0 48.6 0C50.0322 0 51.4057 0.526784 52.4184 1.46447C53.4311 2.40215 54 3.67392 54 5Z" fill="white"/>
<path id="Vector_2" fill-rule="evenodd" clip-rule="evenodd" d="M54 25C54 26.3261 53.4311 27.5979 52.4184 28.5355C51.4057 29.4732 50.0322 30 48.6 30C47.1678 30 45.7943 29.4732 44.7816 28.5355C43.7689 27.5979 43.2 26.3261 43.2 25C43.2 23.6739 43.7689 22.4022 44.7816 21.4645C45.7943 20.5268 47.1678 20 48.6 20C50.0322 20 51.4057 20.5268 52.4184 21.4645C53.4311 22.4022 54 23.6739 54 25Z" fill="white"/>
<path id="Vector_3" fill-rule="evenodd" clip-rule="evenodd" d="M32.4 25C32.4 26.3261 31.8311 27.5979 30.8184 28.5355C29.8057 29.4732 28.4322 30 27 30C25.5678 30 24.1943 29.4732 23.1816 28.5355C22.1689 27.5979 21.6 26.3261 21.6 25C21.6 23.6739 22.1689 22.4022 23.1816 21.4645C24.1943 20.5268 25.5678 20 27 20C28.4322 20 29.8057 20.5268 30.8184 21.4645C31.8311 22.4022 32.4 23.6739 32.4 25Z" fill="white"/>
<path id="Vector_4" fill-rule="evenodd" clip-rule="evenodd" d="M10.8 5C10.8 6.32609 10.2311 7.59786 9.21838 8.53554C8.20568 9.47322 6.83217 10 5.4 10C3.96783 10 2.59432 9.47322 1.58162 8.53554C0.568927 7.59786 0 6.32609 0 5C0 3.67392 0.568927 2.40215 1.58162 1.46447C2.59432 0.526784 3.96783 0 5.4 0C6.83217 0 8.20568 0.526784 9.21838 1.46447C10.2311 2.40215 10.8 3.67392 10.8 5Z" fill="white"/>
<path id="Vector_5" fill-rule="evenodd" clip-rule="evenodd" d="M10.8 25C10.8 26.3261 10.2311 27.5979 9.21838 28.5355C8.20568 29.4732 6.83217 30 5.4 30C3.96783 30 2.59432 29.4732 1.58162 28.5355C0.568927 27.5979 0 26.3261 0 25C0 23.6739 0.568927 22.4022 1.58162 21.4645C2.59432 20.5268 3.96783 20 5.4 20C6.83217 20 8.20568 20.5268 9.21838 21.4645C10.2311 22.4022 10.8 23.6739 10.8 25Z" fill="white"/>
<path id="Vector_6" fill-rule="evenodd" clip-rule="evenodd" d="M32.4 5C32.4 6.32609 31.8311 7.59786 30.8184 8.53554C29.8057 9.47322 28.4322 10 27 10C25.5678 10 24.1943 9.47322 23.1816 8.53554C22.1689 7.59786 21.6 6.32609 21.6 5C21.6 3.67392 22.1689 2.40215 23.1816 1.46447C24.1943 0.526784 25.5678 0 27 0C28.4322 0 29.8057 0.526784 30.8184 1.46447C31.8311 2.40215 32.4 3.67392 32.4 5Z" fill="white"/>
</g>
</svg>
