<svg width="36" height="30" viewBox="0 0 36 30" fill="none" xmlns="http://www.w3.org/2000/svg">
<g id="Group">
<path id="Vector" d="M35.9256 3.46427C34.6044 4.04968 33.1852 4.44524 31.6932 4.62402C33.2326 3.70285 34.3844 2.25304 34.9335 0.545099C33.4871 1.40422 31.9041 2.00895 30.2534 2.33299C29.1432 1.14771 27.6729 0.362079 26.0705 0.0980847C24.4682 -0.16591 22.8235 0.106498 21.3918 0.873015C19.9601 1.63953 18.8216 2.85727 18.1529 4.33718C17.4842 5.81708 17.3228 7.47635 17.6938 9.05736C14.7631 8.91021 11.896 8.14847 9.27873 6.82156C6.66144 5.49465 4.3524 3.63224 2.50147 1.35519C1.86858 2.44691 1.50468 3.71267 1.50468 5.06071C1.50397 6.27426 1.80282 7.46921 2.3747 8.53956C2.94658 9.60991 3.77382 10.5225 4.78301 11.1965C3.61261 11.1593 2.46804 10.843 1.44455 10.2741V10.369C1.44444 12.0711 2.03319 13.7207 3.11091 15.0381C4.18863 16.3555 5.68893 17.2594 7.35726 17.5965C6.27152 17.8904 5.13321 17.9336 4.0283 17.7231C4.499 19.1876 5.41588 20.4683 6.65059 21.3858C7.8853 22.3033 9.37602 22.8118 10.9141 22.84C8.30315 24.8896 5.0787 26.0013 1.75941 25.9965C1.17143 25.9966 0.583955 25.9623 0 25.8936C3.36927 28.0599 7.29134 29.2096 11.2969 29.2052C24.8565 29.2052 32.2691 17.9747 32.2691 8.23462C32.2691 7.91818 32.2612 7.59857 32.2469 7.28213C33.6888 6.23942 34.9334 4.94821 35.9224 3.46901L35.9256 3.46427Z" fill="#00ADB5"/>
</g>
</svg>
